# xmcd
#
# Track frame offsets: 
#        150
#        13454
#        32336
#        46091
#        62855
#        74614
#        91714
#        104919
#        119391
#        137262
#        156043
#        176594
#
# Disc length: 2581 seconds
#
# Revision: 0
# Processed by: cddbd v1.5.2PL0 Copyright (c) Steve Scherf et al.
# Submitted via: ExactAudioCopy v0.90b4
#
DISCID=9f0a130c
DTITLE=Son Little - Son Little
DYEAR=2015
DGENRE=R&B
TTITLE0=I'm Gone
TTITLE1=Nice Dreams
TTITLE2=Your Love Will Blow Me Away
TTITLE3=Toes
TTITLE4=Carbon
TTITLE5=Lay Down
TTITLE6=Doctor's In
TTITLE7=O Mother
TTITLE8=Go Blue Blood Red
TTITLE9=Loser Blues
TTITLE10=The River
TTITLE11=About A Flood
EXTD=
EXTT0=
EXTT1=
EXTT2=
EXTT3=
EXTT4=
EXTT5=
EXTT6=
EXTT7=
EXTT8=
EXTT9=
EXTT10=
EXTT11=
PLAYORDER=
